<?xml version='1.0' encoding='UTF-8' standalone='no'?>
<svg height="297mm" viewBox="0 0 2100 2970" xmlns:freecad="http://www.freecadweb.org/wiki/index.php?title=Svg_Namespace" xmlns="http://www.w3.org/2000/svg" width="210mm" xmlns:xlink="http://www.w3.org/1999/xlink" baseProfile="tiny" xmlns:cc="http://creativecommons.org/ns#" version="1.2" xmlns:rdf="http://www.w3.org/1999/02/22-rdf-syntax-ns#" xmlns:inkscape="http://www.inkscape.org/namespaces/inkscape" xmlns:dc="http://purl.org/dc/elements/1.1/" xmlns:sodipodi="http://sodipodi.sourceforge.net/DTD/sodipodi-0.dtd" xmlns:svg="http://www.w3.org/2000/svg">
 <title>FreeCAD SVG Export</title>
 <desc>Drawing page: Page exported from FreeCAD document: CapKorea</desc>
 <defs/>
 <g inkscape:label="TechDraw" inkscape:groupmode="layer" id="Page">
  <g fill="none" stroke-linecap="square" stroke-linejoin="bevel" fill-rule="evenodd" stroke-width="1" stroke="black" id="DrawingContent">
   <g font-weight="400" fill="#ffffff" fill-opacity="1" font-family="MS Shell Dlg 2" transform="matrix(1,0,0,1,1050,1485)" stroke="none" font-size="29.1042" font-style="normal">
    <path d="M390,-175 L390,200 L390,215 L350,215 L-350,215 L-390,215 L-390,200 L-390,-175 C-390,-197.091 -372.091,-215 -350,-215 L350,-215 C372.091,-215 390,-197.091 390,-175 " fill-rule="evenodd" vector-effect="non-scaling-stroke"/>
   </g>
   <g font-weight="400" fill="#ffffff" fill-opacity="1" font-family="MS Shell Dlg 2" transform="matrix(1,0,0,1,1050,1485)" stroke="none" font-size="29.1042" font-style="normal">
    <path d="M390,-175 L390,200 L350,200 L-350,200 L-390,200 L-390,-175 C-390,-197.091 -372.091,-215 -350,-215 L350,-215 C372.091,-215 390,-197.091 390,-175 " fill-rule="evenodd" vector-effect="non-scaling-stroke"/>
   </g>
   <g font-weight="400" fill="#ffffff" fill-opacity="1" font-family="MS Shell Dlg 2" transform="matrix(1,0,0,1,1050,1485)" stroke="none" font-size="29.1042" font-style="normal">
    <path d="M350,200 L350,215 L-350,215 L-350,200 L350,200" fill-rule="evenodd" vector-effect="non-scaling-stroke"/>
   </g>
   <g font-weight="400" fill="#ffffff" fill-opacity="1" font-family="MS Shell Dlg 2" transform="matrix(1,0,0,1,1050,1485)" stroke="none" font-size="29.1042" font-style="normal">
    <path d="M310,33 L310,62 C310,66.4183 306.418,70 302,70 L225,70 C220.582,70 217,66.4183 217,62 L217,33 C217,28.5817 220.582,25 225,25 L302,25 C306.418,25 310,28.5817 310,33 " fill-rule="evenodd" vector-effect="non-scaling-stroke"/>
   </g>
   <g font-weight="400" fill="#ffffff" fill-opacity="1" font-family="MS Shell Dlg 2" transform="matrix(1,0,0,1,1050,1485)" stroke="none" font-size="29.1042" font-style="normal">
    <path d="M-205,68 C-211.835,68 -217.916,72.342 -220.134,78.8072 C-222.352,85.2724 -220.219,92.4328 -214.823,96.6294 C-215.513,101.235 -214.162,105.913 -211.123,109.442 C-208.083,112.971 -203.657,115 -199,115 L-161,115 C-156.343,115 -151.917,112.971 -148.877,109.442 C-145.838,105.913 -144.487,101.235 -145.177,96.6294 C-139.781,92.4328 -137.648,85.2724 -139.866,78.8072 C-142.084,72.342 -148.165,68 -155,68 L-205,68" fill-rule="evenodd" vector-effect="non-scaling-stroke"/>
   </g>
   <g font-weight="400" fill="#ffffff" fill-opacity="1" font-family="MS Shell Dlg 2" transform="matrix(1,0,0,1,1050,1485)" stroke="none" font-size="29.1042" font-style="normal">
    <path d="M55,-25 C55,-16.7157 48.2843,-10 40,-10 C31.7157,-10 25,-16.7157 25,-25 C25,-33.2843 31.7157,-40 40,-40 C48.2843,-40 55,-33.2843 55,-25 " fill-rule="evenodd" vector-effect="non-scaling-stroke"/>
   </g>
   <g font-weight="400" fill="#ffffff" fill-opacity="1" font-family="MS Shell Dlg 2" transform="matrix(1,0,0,1,1050,1485)" stroke="none" font-size="29.1042" font-style="normal">
    <path d="M-25,-25 C-25,-16.7157 -31.7157,-10 -40,-10 C-48.2843,-10 -55,-16.7157 -55,-25 C-55,-33.2843 -48.2843,-40 -40,-40 C-31.7157,-40 -25,-33.2843 -25,-25 " fill-rule="evenodd" vector-effect="non-scaling-stroke"/>
   </g>
   <g font-weight="400" fill="#ffffff" fill-opacity="1" font-family="MS Shell Dlg 2" transform="matrix(1,0,0,1,1050,1485)" stroke="none" font-size="29.1042" font-style="normal">
    <path d="M-336,175 C-336,182.732 -342.268,189 -350,189 C-357.732,189 -364,182.732 -364,175 C-364,167.268 -357.732,161 -350,161 C-342.268,161 -336,167.268 -336,175 " fill-rule="evenodd" vector-effect="non-scaling-stroke"/>
   </g>
   <g font-weight="400" fill="#ffffff" fill-opacity="1" font-family="MS Shell Dlg 2" transform="matrix(1,0,0,1,1050,1485)" stroke="none" font-size="29.1042" font-style="normal">
    <path d="M-336,-175 C-336,-167.268 -342.268,-161 -350,-161 C-357.732,-161 -364,-167.268 -364,-175 C-364,-182.732 -357.732,-189 -350,-189 C-342.268,-189 -336,-182.732 -336,-175 " fill-rule="evenodd" vector-effect="non-scaling-stroke"/>
   </g>
   <g font-weight="400" fill="#ffffff" fill-opacity="1" font-family="MS Shell Dlg 2" transform="matrix(1,0,0,1,1050,1485)" stroke="none" font-size="29.1042" font-style="normal">
    <path d="M364,-175 C364,-167.268 357.732,-161 350,-161 C342.268,-161 336,-167.268 336,-175 C336,-182.732 342.268,-189 350,-189 C357.732,-189 364,-182.732 364,-175 " fill-rule="evenodd" vector-effect="non-scaling-stroke"/>
   </g>
   <g font-weight="400" fill="#ffffff" fill-opacity="1" font-family="MS Shell Dlg 2" transform="matrix(1,0,0,1,1050,1485)" stroke="none" font-size="29.1042" font-style="normal">
    <path d="M364,175 C364,182.732 357.732,189 350,189 C342.268,189 336,182.732 336,175 C336,167.268 342.268,161 350,161 C357.732,161 364,167.268 364,175 " fill-rule="evenodd" vector-effect="non-scaling-stroke"/>
   </g>
   <g font-weight="400" fill="#ffffff" fill-opacity="1" font-family="MS Shell Dlg 2" transform="matrix(1,0,0,1,1050,1485)" stroke="none" font-size="29.1042" font-style="normal">
    <path d="M350,200 L390,200 L390,215 L350,215 L350,200" fill-rule="evenodd" vector-effect="non-scaling-stroke"/>
   </g>
   <g font-weight="400" fill="#ffffff" fill-opacity="1" font-family="MS Shell Dlg 2" transform="matrix(1,0,0,1,1050,1485)" stroke="none" font-size="29.1042" font-style="normal">
    <path d="M-390,200 L-350,200 L-350,215 L-390,215 L-390,200" fill-rule="evenodd" vector-effect="non-scaling-stroke"/>
   </g>
   <g font-weight="400" fill="none" stroke-opacity="1" font-family="MS Shell Dlg 2" stroke-linecap="round" stroke-linejoin="bevel" stroke-width="2.5" transform="matrix(1,0,0,1,1050,1485)" stroke="#000000" font-size="29.1042" font-style="normal">
    <path d="M-390,-175 L-390,200" fill-rule="evenodd" vector-effect="none"/>
   </g>
   <g font-weight="400" fill="none" stroke-opacity="1" font-family="MS Shell Dlg 2" stroke-linecap="round" stroke-linejoin="bevel" stroke-width="2.5" transform="matrix(1,0,0,1,1050,1485)" stroke="#000000" font-size="29.1042" font-style="normal">
    <path d="M-350,-215 C-372.091,-215 -390,-197.091 -390,-175 " fill-rule="evenodd" vector-effect="none"/>
   </g>
   <g font-weight="400" fill="none" stroke-opacity="1" font-family="MS Shell Dlg 2" stroke-linecap="round" stroke-linejoin="bevel" stroke-width="2.5" transform="matrix(1,0,0,1,1050,1485)" stroke="#000000" font-size="29.1042" font-style="normal">
    <path d="M390,-175 L390,200" fill-rule="evenodd" vector-effect="none"/>
   </g>
   <g font-weight="400" fill="none" stroke-opacity="1" font-family="MS Shell Dlg 2" stroke-linecap="round" stroke-linejoin="bevel" stroke-width="2.5" transform="matrix(1,0,0,1,1050,1485)" stroke="#000000" font-size="29.1042" font-style="normal">
    <path d="M390,-175 C390,-197.091 372.091,-215 350,-215 " fill-rule="evenodd" vector-effect="none"/>
   </g>
   <g font-weight="400" fill="none" stroke-opacity="1" font-family="MS Shell Dlg 2" stroke-linecap="round" stroke-linejoin="bevel" stroke-width="2.5" transform="matrix(1,0,0,1,1050,1485)" stroke="#000000" font-size="29.1042" font-style="normal">
    <path d="M-350,-215 L350,-215" fill-rule="evenodd" vector-effect="none"/>
   </g>
   <g font-weight="400" fill="none" stroke-opacity="1" font-family="MS Shell Dlg 2" stroke-linecap="round" stroke-linejoin="bevel" stroke-width="2.5" transform="matrix(1,0,0,1,1050,1485)" stroke="#000000" font-size="29.1042" font-style="normal">
    <path d="M-336,175 C-336,182.732 -342.268,189 -350,189 C-357.732,189 -364,182.732 -364,175 C-364,167.268 -357.732,161 -350,161 C-342.268,161 -336,167.268 -336,175 " fill-rule="evenodd" vector-effect="none"/>
   </g>
   <g font-weight="400" fill="none" stroke-opacity="1" font-family="MS Shell Dlg 2" stroke-linecap="round" stroke-linejoin="bevel" stroke-width="2.5" transform="matrix(1,0,0,1,1050,1485)" stroke="#000000" font-size="29.1042" font-style="normal">
    <path d="M-205,68 C-211.835,68 -217.916,72.342 -220.134,78.8072 C-222.352,85.2724 -220.219,92.4328 -214.823,96.6294 " fill-rule="evenodd" vector-effect="none"/>
   </g>
   <g font-weight="400" fill="none" stroke-opacity="1" font-family="MS Shell Dlg 2" stroke-linecap="round" stroke-linejoin="bevel" stroke-width="2.5" transform="matrix(1,0,0,1,1050,1485)" stroke="#000000" font-size="29.1042" font-style="normal">
    <path d="M-205,68 L-155,68" fill-rule="evenodd" vector-effect="none"/>
   </g>
   <g font-weight="400" fill="none" stroke-opacity="1" font-family="MS Shell Dlg 2" stroke-linecap="round" stroke-linejoin="bevel" stroke-width="2.5" transform="matrix(1,0,0,1,1050,1485)" stroke="#000000" font-size="29.1042" font-style="normal">
    <path d="M-145.177,96.6294 C-139.781,92.4328 -137.648,85.2724 -139.866,78.8072 C-142.084,72.342 -148.165,68 -155,68 " fill-rule="evenodd" vector-effect="none"/>
   </g>
   <g font-weight="400" fill="none" stroke-opacity="1" font-family="MS Shell Dlg 2" stroke-linecap="round" stroke-linejoin="bevel" stroke-width="2.5" transform="matrix(1,0,0,1,1050,1485)" stroke="#000000" font-size="29.1042" font-style="normal">
    <path d="M-161,115 C-156.343,115 -151.917,112.971 -148.877,109.442 C-145.838,105.913 -144.487,101.235 -145.177,96.6294 " fill-rule="evenodd" vector-effect="none"/>
   </g>
   <g font-weight="400" fill="none" stroke-opacity="1" font-family="MS Shell Dlg 2" stroke-linecap="round" stroke-linejoin="bevel" stroke-width="2.5" transform="matrix(1,0,0,1,1050,1485)" stroke="#000000" font-size="29.1042" font-style="normal">
    <path d="M-199,115 L-161,115" fill-rule="evenodd" vector-effect="none"/>
   </g>
   <g font-weight="400" fill="none" stroke-opacity="1" font-family="MS Shell Dlg 2" stroke-linecap="round" stroke-linejoin="bevel" stroke-width="2.5" transform="matrix(1,0,0,1,1050,1485)" stroke="#000000" font-size="29.1042" font-style="normal">
    <path d="M-214.823,96.6294 C-215.513,101.235 -214.162,105.913 -211.123,109.442 C-208.083,112.971 -203.657,115 -199,115 " fill-rule="evenodd" vector-effect="none"/>
   </g>
   <g font-weight="400" fill="none" stroke-opacity="1" font-family="MS Shell Dlg 2" stroke-linecap="round" stroke-linejoin="bevel" stroke-width="2.5" transform="matrix(1,0,0,1,1050,1485)" stroke="#000000" font-size="29.1042" font-style="normal">
    <path d="M364,175 C364,182.732 357.732,189 350,189 C342.268,189 336,182.732 336,175 C336,167.268 342.268,161 350,161 C357.732,161 364,167.268 364,175 " fill-rule="evenodd" vector-effect="none"/>
   </g>
   <g font-weight="400" fill="none" stroke-opacity="1" font-family="MS Shell Dlg 2" stroke-linecap="round" stroke-linejoin="bevel" stroke-width="2.5" transform="matrix(1,0,0,1,1050,1485)" stroke="#000000" font-size="29.1042" font-style="normal">
    <path d="M217,62 L217,33" fill-rule="evenodd" vector-effect="none"/>
   </g>
   <g font-weight="400" fill="none" stroke-opacity="1" font-family="MS Shell Dlg 2" stroke-linecap="round" stroke-linejoin="bevel" stroke-width="2.5" transform="matrix(1,0,0,1,1050,1485)" stroke="#000000" font-size="29.1042" font-style="normal">
    <path d="M225,25 C220.582,25 217,28.5817 217,33 " fill-rule="evenodd" vector-effect="none"/>
   </g>
   <g font-weight="400" fill="none" stroke-opacity="1" font-family="MS Shell Dlg 2" stroke-linecap="round" stroke-linejoin="bevel" stroke-width="2.5" transform="matrix(1,0,0,1,1050,1485)" stroke="#000000" font-size="29.1042" font-style="normal">
    <path d="M225,25 L302,25" fill-rule="evenodd" vector-effect="none"/>
   </g>
   <g font-weight="400" fill="none" stroke-opacity="1" font-family="MS Shell Dlg 2" stroke-linecap="round" stroke-linejoin="bevel" stroke-width="2.5" transform="matrix(1,0,0,1,1050,1485)" stroke="#000000" font-size="29.1042" font-style="normal">
    <path d="M310,33 C310,28.5817 306.418,25 302,25 " fill-rule="evenodd" vector-effect="none"/>
   </g>
   <g font-weight="400" fill="none" stroke-opacity="1" font-family="MS Shell Dlg 2" stroke-linecap="round" stroke-linejoin="bevel" stroke-width="2.5" transform="matrix(1,0,0,1,1050,1485)" stroke="#000000" font-size="29.1042" font-style="normal">
    <path d="M310,33 L310,62" fill-rule="evenodd" vector-effect="none"/>
   </g>
   <g font-weight="400" fill="none" stroke-opacity="1" font-family="MS Shell Dlg 2" stroke-linecap="round" stroke-linejoin="bevel" stroke-width="2.5" transform="matrix(1,0,0,1,1050,1485)" stroke="#000000" font-size="29.1042" font-style="normal">
    <path d="M302,70 C306.418,70 310,66.4183 310,62 " fill-rule="evenodd" vector-effect="none"/>
   </g>
   <g font-weight="400" fill="none" stroke-opacity="1" font-family="MS Shell Dlg 2" stroke-linecap="round" stroke-linejoin="bevel" stroke-width="2.5" transform="matrix(1,0,0,1,1050,1485)" stroke="#000000" font-size="29.1042" font-style="normal">
    <path d="M302,70 L225,70" fill-rule="evenodd" vector-effect="none"/>
   </g>
   <g font-weight="400" fill="none" stroke-opacity="1" font-family="MS Shell Dlg 2" stroke-linecap="round" stroke-linejoin="bevel" stroke-width="2.5" transform="matrix(1,0,0,1,1050,1485)" stroke="#000000" font-size="29.1042" font-style="normal">
    <path d="M217,62 C217,66.4183 220.582,70 225,70 " fill-rule="evenodd" vector-effect="none"/>
   </g>
   <g font-weight="400" fill="none" stroke-opacity="1" font-family="MS Shell Dlg 2" stroke-linecap="round" stroke-linejoin="bevel" stroke-width="2.5" transform="matrix(1,0,0,1,1050,1485)" stroke="#000000" font-size="29.1042" font-style="normal">
    <path d="M-25,-25 C-25,-16.7157 -31.7157,-10 -40,-10 C-48.2843,-10 -55,-16.7157 -55,-25 C-55,-33.2843 -48.2843,-40 -40,-40 C-31.7157,-40 -25,-33.2843 -25,-25 " fill-rule="evenodd" vector-effect="none"/>
   </g>
   <g font-weight="400" fill="none" stroke-opacity="1" font-family="MS Shell Dlg 2" stroke-linecap="round" stroke-linejoin="bevel" stroke-width="2.5" transform="matrix(1,0,0,1,1050,1485)" stroke="#000000" font-size="29.1042" font-style="normal">
    <path d="M-336,-175 C-336,-167.268 -342.268,-161 -350,-161 C-357.732,-161 -364,-167.268 -364,-175 C-364,-182.732 -357.732,-189 -350,-189 C-342.268,-189 -336,-182.732 -336,-175 " fill-rule="evenodd" vector-effect="none"/>
   </g>
   <g font-weight="400" fill="none" stroke-opacity="1" font-family="MS Shell Dlg 2" stroke-linecap="round" stroke-linejoin="bevel" stroke-width="2.5" transform="matrix(1,0,0,1,1050,1485)" stroke="#000000" font-size="29.1042" font-style="normal">
    <path d="M55,-25 C55,-16.7157 48.2843,-10 40,-10 C31.7157,-10 25,-16.7157 25,-25 C25,-33.2843 31.7157,-40 40,-40 C48.2843,-40 55,-33.2843 55,-25 " fill-rule="evenodd" vector-effect="none"/>
   </g>
   <g font-weight="400" fill="none" stroke-opacity="1" font-family="MS Shell Dlg 2" stroke-linecap="round" stroke-linejoin="bevel" stroke-width="2.5" transform="matrix(1,0,0,1,1050,1485)" stroke="#000000" font-size="29.1042" font-style="normal">
    <path d="M364,-175 C364,-167.268 357.732,-161 350,-161 C342.268,-161 336,-167.268 336,-175 C336,-182.732 342.268,-189 350,-189 C357.732,-189 364,-182.732 364,-175 " fill-rule="evenodd" vector-effect="none"/>
   </g>
   <g font-weight="400" fill="none" stroke-opacity="1" font-family="MS Shell Dlg 2" stroke-linecap="round" stroke-linejoin="bevel" stroke-width="2.5" transform="matrix(1,0,0,1,1050,1485)" stroke="#000000" font-size="29.1042" font-style="normal">
    <path d="M-390,200 L-390,215" fill-rule="evenodd" vector-effect="none"/>
   </g>
   <g font-weight="400" fill="none" stroke-opacity="1" font-family="MS Shell Dlg 2" stroke-linecap="round" stroke-linejoin="bevel" stroke-width="2.5" transform="matrix(1,0,0,1,1050,1485)" stroke="#000000" font-size="29.1042" font-style="normal">
    <path d="M350,215 L390,215" fill-rule="evenodd" vector-effect="none"/>
   </g>
   <g font-weight="400" fill="none" stroke-opacity="1" font-family="MS Shell Dlg 2" stroke-linecap="round" stroke-linejoin="bevel" stroke-width="2.5" transform="matrix(1,0,0,1,1050,1485)" stroke="#000000" font-size="29.1042" font-style="normal">
    <path d="M350,215 L-350,215" fill-rule="evenodd" vector-effect="none"/>
   </g>
   <g font-weight="400" fill="none" stroke-opacity="1" font-family="MS Shell Dlg 2" stroke-linecap="round" stroke-linejoin="bevel" stroke-width="2.5" transform="matrix(1,0,0,1,1050,1485)" stroke="#000000" font-size="29.1042" font-style="normal">
    <path d="M-390,215 L-350,215" fill-rule="evenodd" vector-effect="none"/>
   </g>
   <g font-weight="400" fill="none" stroke-opacity="1" font-family="MS Shell Dlg 2" stroke-linecap="round" stroke-linejoin="bevel" stroke-width="2.5" transform="matrix(1,0,0,1,1050,1485)" stroke="#000000" font-size="29.1042" font-style="normal">
    <path d="M350,200 L390,200" fill-rule="evenodd" vector-effect="none"/>
   </g>
   <g font-weight="400" fill="none" stroke-opacity="1" font-family="MS Shell Dlg 2" stroke-linecap="round" stroke-linejoin="bevel" stroke-width="2.5" transform="matrix(1,0,0,1,1050,1485)" stroke="#000000" font-size="29.1042" font-style="normal">
    <path d="M350,200 L-350,200" fill-rule="evenodd" vector-effect="none"/>
   </g>
   <g font-weight="400" fill="none" stroke-opacity="1" font-family="MS Shell Dlg 2" stroke-linecap="round" stroke-linejoin="bevel" stroke-width="2.5" transform="matrix(1,0,0,1,1050,1485)" stroke="#000000" font-size="29.1042" font-style="normal">
    <path d="M-390,200 L-350,200" fill-rule="evenodd" vector-effect="none"/>
   </g>
   <g font-weight="400" fill="none" stroke-opacity="1" font-family="MS Shell Dlg 2" stroke-linecap="round" stroke-linejoin="bevel" stroke-width="2.5" transform="matrix(1,0,0,1,1050,1485)" stroke="#000000" font-size="29.1042" font-style="normal">
    <path d="M390,200 L390,215" fill-rule="evenodd" vector-effect="none"/>
   </g>
   <g font-weight="400" fill="none" stroke-opacity="1" font-family="MS Shell Dlg 2" stroke-linecap="round" stroke-linejoin="bevel" stroke-width="2.5" transform="matrix(1,0,0,1,1050,1485)" stroke="#000000" font-size="29.1042" font-style="normal">
    <path d="M-350,200 L-350,215" fill-rule="evenodd" vector-effect="none"/>
   </g>
   <g font-weight="400" fill="none" stroke-opacity="1" font-family="MS Shell Dlg 2" stroke-linecap="round" stroke-linejoin="bevel" stroke-width="2.5" transform="matrix(1,0,0,1,1050,1485)" stroke="#000000" font-size="29.1042" font-style="normal">
    <path d="M350,200 L350,215" fill-rule="evenodd" vector-effect="none"/>
   </g>
  </g>
 </g>
</svg>
